#!OML:ASF E:\Style4\Style4.ASF
:FULLY-SPECIFIED
:DEGREES
1696
root -1.21758 17.9769 -1.15113 5.69747 1.95605 -8.54203
lowerback 6.84668 2.85544 -11.8122
upperback 0.0028626 2.57455 -6.48708
thorax -4.0866 1.43171 -0.489813
lowerneck 0.80039 -3.36463 -7.53478
upperneck 8.11114 -4.35828 0.243062
head 2.6426 -2.37117 1.2798
rclavicle 9.54166e-015 2.22639e-014
rhumerus -84.3905 53.3303 -127.452
rradius 78.2338
rwrist 0.0864867
rhand -5.43104 34.4456
rfingers 7.12502
rthumb 20.3792 5.49492
lclavicle 9.54166e-015 2.22639e-014
lhumerus -26.4977 23.614 18.9364
lradius 108.146
lwrist -11.5838
lhand -8.2506 36.9845
lfingers 7.12502
lthumb 17.6677 66.2018
rfemur -4.32488 -2.91326 31.9074
rtibia 10.4456
rfoot -11.9932 -11.8587
rtoes -7.94924
lfemur -14.771 -4.76655 -4.84822
ltibia 30.1663
lfoot -20.438 10.278
ltoes -19.8856
1697
root -1.23837 17.9668 -1.15957 5.79701 2.16505 -8.88722
lowerback 6.96125 2.84447 -11.877
upperback 0.0744474 2.5399 -6.57533
thorax -4.0714 1.41243 -0.547032
lowerneck 0.758827 -3.39203 -7.55941
upperneck 8.08486 -4.3803 0.10591
head 2.6389 -2.3851 1.23817
rclavicle -3.65764e-014 1.01778e-013
rhumerus -84.145 53.3067 -127.335
rradius 78.1751
rwrist 0.140083
rhand -5.54213 34.4255
rfingers 7.12502
rthumb 20.2725 5.46341
lclavicle -3.65764e-014 1.01778e-013
lhumerus -26.3431 23.9204 18.9784
lradius 107.888
lwrist -11.3555
lhand -8.77178 36.6515
lfingers 7.12502
lthumb 17.1661 65.9132
rfemur -4.448 -3.12879 32.3784
rtibia 10.3467
rfoot -11.9834 -11.777
rtoes -7.95327
lfemur -15.2849 -4.72648 -4.33083
ltibia 30.67
lfoot -20.5675 10.0144
ltoes -19.5126
1698
root -1.25771 17.9568 -1.15848 5.88646 2.35984 -9.20294
lowerback 6.95572 2.84797 -11.9432
upperback 0.165213 2.54689 -6.68865
thorax -3.97001 1.40978 -0.627691
lowerneck 0.757375 -3.43008 -7.53232
upperneck 8.0581 -4.41881 -0.0594465
head 2.62573 -2.40631 1.17855
rclavicle -1.35174e-014 3.18055e-014
rhumerus -83.9298 53.1872 -127.205
rradius 78.1585
rwrist 0.172309
rhand -7.21973 33.3049
rfingers 7.12502
rthumb 18.6595 4.17984
lclavicle -1.35174e-014 3.18055e-014
lhumerus -26.1535 24.1916 19.0729
lradius 107.663
lwrist -11.3227
lhand -8.79039 36.9119
lfingers 7.12502
lthumb 17.1482 66.1752
rfemur -4.54369 -3.47364 32.8032
rtibia 10.2943
rfoot -12.0424 -11.5407
rtoes -7.70024
lfemur -15.7239 -4.6927 -3.8621
ltibia 31.1511
lfoot -20.6928 9.84245
ltoes -19.5131
1699
root -1.2726 17.9491 -1.16264 5.92388 2.44892 -9.39711
lowerback 7.10066 2.8856 -12.1432
upperback 0.20818 2.55338 -6.82918
thorax -4.00979 1.41503 -0.675892
lowerneck 0.832942 -3.43198 -7.53524
upperneck 8.07136 -4.41853 -0.166673
head 2.6132 -2.40865 1.14514
rclavicle 1.59028e-014 4.45278e-014
rhumerus -83.8391 53.0826 -127.209
rradius 78.1314
rwrist 0.100117
rhand -9.96215 33.4791
rfingers 7.12502
rthumb 16.0201 4.12149
lclavicle 1.59028e-014 4.45278e-014
lhumerus -26.1171 24.2143 19.0582
lradius 107.571
lwrist -11.3349
lhand -8.79427 37.485
lfingers 7.12502
lthumb 17.1445 66.7486
rfemur -4.57715 -3.87226 33.0643
rtibia 10.227
rfoot -12.0066 -11.2071
rtoes -7.58517
lfemur -16.0659 -4.64358 -3.57279
ltibia 31.6167
lfoot -20.8143 9.64585
ltoes -19.2
1700
root -1.28871 17.9432 -1.1706 6.00684 2.56158 -9.59858
lowerback 7.24791 2.89263 -12.3413
upperback 0.219457 2.51499 -6.96023
thorax -4.08142 1.40051 -0.711613
lowerneck 0.989184 -3.39652 -7.60522
upperneck 8.08087 -4.38176 -0.172818
head 2.58865 -2.39223 1.15852
rclavicle 3.18055e-015 -9.54166e-015
rhumerus -83.8491 53.0562 -127.333
rradius 78.0933
rwrist 0.0570481
rhand -5.39743 35.0028
rfingers 7.12502
rthumb 20.4115 6.0556
lclavicle 3.18055e-015 -9.54166e-015
lhumerus -26.2214 24.2001 18.958
lradius 107.555
lwrist -11.2726
lhand -8.85695 37.5703
lfingers 7.12502
lthumb 17.0841 66.8392
rfemur -4.66075 -4.13884 33.3491
rtibia 10.11
rfoot -11.9065 -10.9976
rtoes -7.58106
lfemur -16.4903 -4.55371 -3.25238
ltibia 32.0731
lfoot -20.9036 9.36044
ltoes -18.6413
1701
root -1.30878 17.9325 -1.17825 6.05958 2.73243 -9.93404
lowerback 7.4154 2.90319 -12.397
upperback 0.277676 2.49602 -7.07583
thorax -4.10989 1.39039 -0.808514
lowerneck 1.03246 -3.39069 -7.59269
upperneck 8.08627 -4.37423 -0.208886
head 2.58076 -2.38871 1.14539
rclavicle 1.35174e-014 6.36111e-014
rhumerus -83.716 52.9922 -127.354
rradius 78.0627
rwrist 0.106319
rhand -6.4503 35.2692
rfingers 7.12502
rthumb 19.3994 6.21693
lclavicle 1.35174e-014 6.36111e-014
lhumerus -26.1761 24.3378 18.8553
lradius 107.441
lwrist -11.4514
lhand -8.61044 37.1696
lfingers 7.12502
lthumb 17.3214 66.4177
rfemur -4.7437 -4.29842 33.8036
rtibia 10.0053
rfoot -11.8938 -10.916
rtoes -7.41128
lfemur -16.9325 -4.33837 -2.74582
ltibia 32.5424
lfoot -20.9562 9.02282
ltoes -18.8705
1702
root -1.32576 17.9199 -1.18275 6.05257 2.82185 -10.3184
lowerback 7.57625 2.96412 -12.3771
upperback 0.375421 2.55601 -7.18791
thorax -4.0951 1.41484 -0.94994
lowerneck 1.07287 -3.41904 -7.53326
upperneck 8.00438 -4.41135 -0.29212
head 2.54283 -2.40479 1.10823
rclavicle 3.10104e-014 -2.22639e-014
rhumerus -83.5071 52.8832 -127.297
rradius 78.0478
rwrist 0.138476
rhand -5.64469 34.9461
rfingers 7.12502
rthumb 20.1739 5.97366
lclavicle 3.10104e-014 -2.22639e-014
lhumerus -25.9897 24.5335 18.904
lradius 107.295
lwrist -11.7697
lhand -8.21875 36.9359
lfingers 7.12502
lthumb 17.6983 66.1505
rfemur -4.7195 -4.53916 34.2908
rtibia 9.8809
rfoot -11.8807 -10.6684
rtoes -7.0584
lfemur -17.2699 -4.18155 -2.22205
ltibia 33.0459
lfoot -21.1136 8.83547
ltoes -19.1009
1703
root -1.342 17.9076 -1.18744 6.08306 2.91225 -10.6914
lowerback 7.69771 2.98603 -12.373
upperback 0.448376 2.5678 -7.28956
thorax -4.08182 1.41693 -1.06499
lowerneck 1.16871 -3.42615 -7.49966
upperneck 7.90594 -4.42317 -0.402361
head 2.48839 -2.4091 1.06845
rclavicle -4.05521e-014 8.26944e-014
rhumerus -83.4063 52.838 -127.365
rradius 77.9887
rwrist 0.152037
rhand -8.27248 33.4307
rfingers 7.12502
rthumb 17.6466 4.21148
lclavicle -4.05521e-014 8.26944e-014
lhumerus -25.9018 24.704 18.925
lradius 107.179
lwrist -11.9624
lhand -7.9168 37.0111
lfingers 7.12502
lthumb 17.9889 66.1992
rfemur -4.73304 -4.77391 34.7505
rtibia 9.75954
rfoot -11.8976 -10.4121
rtoes -6.42721
lfemur -17.6286 -4.04184 -1.71317
ltibia 33.5688
lfoot -21.3291 8.58928
ltoes -19.3455
